<svg width="42" height="57" viewBox="0 0 42 57" fill="none" xmlns="http://www.w3.org/2000/svg">
<ellipse cx="20.768" cy="54.5366" rx="11.9879" ry="1.85729" fill="#EFEFEF"/>
<path d="M0 19.774C0 26.8129 5.13257 34.9884 7.69885 38.1962L17.0475 28.0228V26.373C17.2674 25.0532 15.3061 23.2568 14.2979 22.5236L10.7234 22.2486C10.7234 21.8087 9.62357 21.3321 9.07365 21.1488H5.77414C5.55417 21.1488 5.20647 20.7822 5.06011 20.5989H35.4697C35.4697 20.8188 35.1031 21.0571 34.9198 21.1488H31.3453C31.3453 22.2486 28.5957 22.5236 28.3208 22.5236C28.1008 22.5236 27.3126 22.7069 26.946 22.7985C25.1863 23.0185 21.0802 27.6561 19.2471 29.9475L19.7971 30.4974L12.3732 44.5203L20.8969 54.1439C24.9296 50.2028 34.0399 40.3409 38.2193 32.4221C43.4435 22.5236 42.8936 16.4745 38.7692 9.87546C34.6448 3.27644 25.5712 -1.12291 17.3224 0.25189C9.07365 1.62669 0 10.9753 0 19.774Z" fill="#F97B22"/>
<path d="M24.1965 22.5236H16.7726C17.3225 23.3484 18.4223 24.4483 19.5222 24.9982C20.402 25.4381 23.005 23.5317 24.1965 22.5236Z" fill="#F97B22"/>
<path d="M14.001 20.2118H20.7639H27.9368C29.4628 20.0454 29.9599 18.8483 30.0177 18.2705H20.7639H11.5732C11.8507 19.7126 13.3073 20.1656 14.001 20.2118Z" fill="#F1EFEF"/>
<path d="M10.8888 18.2705H21.2933H30.5471C32.7668 17.9932 33.0904 16.8608 32.9748 16.3292H21.2933H8.80788C8.66916 17.5495 10.1374 18.1319 10.8888 18.2705Z" fill="#F1EFEF"/>
<path d="M19.5501 3.84949H20.7639H22.041L21.9968 5.7742C23.095 8.13148 26.5149 13.5005 31.2316 15.7746H20.7639H10.5328C15.6657 13.1122 18.7537 7.98629 19.6208 5.86011L19.5501 3.84949Z" fill="#F1EFEF"/>
</svg>
