<svg width="74" height="68" viewBox="0 0 74 68" fill="none" xmlns="http://www.w3.org/2000/svg">
<rect x="0.953491" width="72.8372" height="67.7791" rx="19.2209" fill="#FFF2E9"/>
<path d="M29.7512 49.9176H29.6711C15.6184 49.9176 20.9564 40.4824 20.9564 36.225C20.9564 33.3335 18.7201 31.8026 17.2793 31.1172C17.0442 31.0022 17.1242 30.657 17.3794 30.657H19.4955C21.3216 31.1723 24.7785 33.6586 23.8079 37.8009C22.8324 41.9382 25.5539 43.8943 28.0202 43.8943L30.4516 43.2839C30.4516 43.2839 43.6739 49.8926 29.7512 49.9176Z" fill="#DDBD6E"/>
<path d="M29.7512 49.9176H29.6711C15.6184 49.9176 20.9564 40.4824 20.9564 36.225C20.9564 33.3335 18.7201 31.8026 17.2793 31.1172C17.0442 31.0022 17.1242 30.657 17.3794 30.657H18.3099C22.4772 32.6081 23.1025 34.7292 22.2371 38.6564C21.3716 42.5835 21.5967 45.185 26.3443 46.6458C29.9413 47.7564 29.9563 49.2572 29.7512 49.9176Z" fill="#EED688"/>
<path d="M35.0291 24.4586C34.824 25.8593 34.759 28.5308 34.1536 29.0561C33.9135 29.8765 33.103 31.7826 33.103 31.7826H31.9874C31.9874 31.7826 32.998 29.8765 33.2931 29.0561C34.0436 28.5308 34.1236 25.8593 34.3787 24.4586C34.864 21.7721 36.0947 22.0722 36.3949 21.2118C36.69 20.3513 35.9796 19.6409 35.9796 19.6409V19.2707C35.9796 19.2707 37.4004 18.7104 37.4004 17.8899C37.4004 17.2546 37.6005 17.1545 37.6906 17.1445C37.6155 17.1645 37.4654 17.2796 37.4654 17.8899C37.4654 18.7104 36.3248 19.2707 36.3248 19.2707V19.6409C36.3248 19.6409 36.8951 20.3513 36.655 21.2118C36.4149 22.0722 35.4193 21.7721 35.0291 24.4586Z" fill="#DDBD6E"/>
<path d="M37.7357 31.8326C37.7357 31.8326 37.7357 31.8159 37.7357 31.7826H35.9647C35.9647 31.7826 36.2749 29.8765 36.3699 29.0561C36.6001 28.5308 36.6251 25.8593 36.7001 24.4586C36.8502 21.7721 37.2304 22.0722 37.3255 21.2118C37.4155 20.3513 37.1954 19.6409 37.1954 19.6409V19.2707C37.1954 19.2707 37.6356 18.7104 37.6356 17.8899C37.6356 17.2396 37.6957 17.1495 37.7257 17.1395C37.7357 17.1395 37.7357 17.1395 37.7357 17.1395V17.1896C37.7357 17.1896 37.739 17.1896 37.7457 17.1896C37.7757 17.1996 37.8408 17.2846 37.8408 17.94C37.8408 18.7604 38.281 19.3207 38.281 19.3207V19.6909C38.281 19.6909 38.0609 20.4013 38.1509 21.2618C38.246 22.1223 38.6212 21.8221 38.7713 24.5086C38.8513 25.9094 38.8763 28.5808 39.1065 29.1061C39.2015 29.9266 39.5117 31.8326 39.5117 31.8326H37.7357Z" fill="#D1AB5E"/>
<path d="M37.4054 54.5351C28.8407 54.4551 25.4889 51.2683 25.4889 46.8459C25.4889 42.3634 30.8668 40.1222 30.8668 37.8059C30.8668 35.4897 30.8668 31.8326 30.8668 31.8326H32.1976C32.1976 31.8326 32.1976 35.4897 32.1976 37.8059C32.1976 40.1222 27.8652 42.3634 27.8652 46.8459C27.8652 51.2583 30.5467 54.4351 37.4054 54.5351Z" fill="#DDBD6E"/>
<path d="M41.5127 46.8459C41.5127 51.3284 40.4521 54.5351 37.7356 54.5351C35.0191 54.5351 33.9635 51.3284 33.9635 46.8459C33.9635 42.3634 35.6194 40.1222 35.6194 37.8059C35.6194 35.4897 35.6194 31.8326 35.6194 31.8326H39.8567C39.8567 31.8326 39.8567 35.4897 39.8567 37.8059C39.8567 40.1222 41.5127 42.3634 41.5127 46.8459Z" fill="#F89E1B"/>
<path d="M43.5839 39.9622L47.6511 38.5664C47.456 36.0851 47.7762 33.7488 49.212 32.7982C50.6478 31.8427 53.0741 32.0228 54.3148 30.2769C54.8551 30.8122 54.0796 31.9678 54.0796 31.9678C54.0796 31.9678 57.4665 32.8333 56.9312 36.6203C56.496 39.7171 52.2186 46.906 51.9134 48.2818C51.6083 49.6575 52.3487 50.1428 52.6939 50.1528C53.0391 50.1628 53.5844 50.0828 54.0246 49.1072C54.4649 48.1367 55.0802 48.9872 54.4098 49.9277C53.7445 50.8732 52.5288 51.6286 50.8779 50.2478C49.227 48.8721 52.3137 45.3952 53.1291 43.6392C53.9446 41.8882 57.9668 34.4842 53.7094 33.2635C49.4571 32.0378 48.6467 36.4252 49.232 39.627L44.9246 41.9483C44.9246 41.9483 43.6339 41.0078 43.5839 39.9622Z" fill="#C49F54"/>
<path d="M47.2009 48.8221H50.8079L51.1581 50.463L46.5205 50.418L47.2009 48.8221Z" fill="#C49F54"/>
<path d="M37.7256 17.1395C37.6956 17.1495 37.6355 17.2396 37.6355 17.8899C37.6355 18.7104 37.1953 19.2707 37.1953 19.2707V19.6409C37.1953 19.6409 37.4154 20.3513 37.3254 21.2118C37.2303 22.0722 36.8501 21.7721 36.7 24.4586C36.625 25.8593 36.6 28.5308 36.3698 29.0561C36.2748 29.8765 35.9646 31.7826 35.9646 31.7826H33.103C33.103 31.7826 33.9135 29.8765 34.1536 29.0561C34.7589 28.5308 34.824 25.8593 35.0291 24.4586C35.4193 21.7721 36.4149 22.0722 36.655 21.2118C36.8951 20.3513 36.3248 19.6409 36.3248 19.6409V19.2707C36.3248 19.2707 37.4654 18.7104 37.4654 17.8899C37.4654 17.2796 37.6155 17.1645 37.6906 17.1445C37.7006 17.1412 37.7106 17.1395 37.7206 17.1395C37.7239 17.1395 37.7256 17.1395 37.7256 17.1395Z" fill="#EED688"/>
<path d="M43.4888 31.8326H39.5116C39.5116 31.8326 39.2014 29.9266 39.1064 29.1061C38.8762 28.5808 38.8512 25.9094 38.7712 24.5086C38.6211 21.8221 38.2459 22.1223 38.1508 21.2618C38.0608 20.4013 38.2809 19.691 38.2809 19.691V19.3207C38.2809 19.3207 37.8407 18.7604 37.8407 17.94C37.8407 17.2846 37.7756 17.1996 37.7456 17.1896C37.7506 17.1896 37.7506 17.1896 37.7556 17.1896C37.7589 17.1896 37.7656 17.1896 37.7756 17.1896C37.8607 17.1996 38.0708 17.2846 38.0708 17.94C38.0708 18.7604 39.4916 19.3207 39.4916 19.3207V19.691C39.4916 19.691 38.7862 20.4013 39.0813 21.2618C39.3815 22.1223 40.6122 21.8221 41.0975 24.5086C41.3526 25.9094 41.4326 28.5808 42.178 29.1061C42.4782 29.9266 43.4888 31.8326 43.4888 31.8326Z" fill="#C49F54"/>
<path d="M37.7357 31.8326C37.7357 31.8326 37.7357 31.8159 37.7357 31.7826H35.9647C35.9647 31.7826 36.2749 29.8765 36.3699 29.0561C36.6001 28.5308 36.6251 25.8593 36.7001 24.4586C36.8502 21.7721 37.2304 22.0722 37.3255 21.2118C37.4155 20.3513 37.1954 19.6409 37.1954 19.6409V19.2707C37.1954 19.2707 37.6356 18.7104 37.6356 17.8899C37.6356 17.2396 37.6957 17.1495 37.7257 17.1395C37.7357 17.1395 37.7357 17.1395 37.7357 17.1395V17.1896C37.7357 17.1896 37.739 17.1896 37.7457 17.1896H37.7557C37.7507 17.1896 37.7507 17.1896 37.7457 17.1896C37.7757 17.1996 37.8408 17.2846 37.8408 17.94C37.8408 18.7604 38.281 19.3207 38.281 19.3207V19.6909C38.281 19.6909 38.0609 20.4013 38.1509 21.2618C38.246 22.1223 38.6212 21.8221 38.7713 24.5086C38.8513 25.9094 38.8763 28.5808 39.1065 29.1061C39.2015 29.9266 39.5117 31.8326 39.5117 31.8326H37.7357Z" fill="#D1AB5E"/>
<path d="M49.9823 46.8459C49.9823 51.2683 46.6355 54.4551 38.0658 54.5351C37.9557 54.5351 37.8457 54.5351 37.7356 54.5351C40.4521 54.5351 41.5127 51.3284 41.5127 46.8459C41.5127 42.3634 39.8568 40.1222 39.8568 37.8059C39.8568 35.4897 39.8568 31.8326 39.8568 31.8326H44.6094C44.6094 31.8326 44.6094 35.4897 44.6094 37.8059C44.6094 40.1222 49.9823 42.3634 49.9823 46.8459Z" fill="#C49F54"/>
<path d="M37.7357 54.5351C37.6256 54.5351 37.5155 54.5351 37.4055 54.5351C30.5467 54.4351 27.8652 51.2583 27.8652 46.8459C27.8652 42.3634 32.1976 40.1222 32.1976 37.8059C32.1976 35.4897 32.1976 31.8326 32.1976 31.8326H35.6195C35.6195 31.8326 35.6195 35.4897 35.6195 37.8059C35.6195 40.1222 33.9636 42.3634 33.9636 46.8459C33.9636 51.3284 35.0192 54.5351 37.7357 54.5351Z" fill="#EED688"/>
<path d="M41.5127 46.8459C41.5127 51.3284 40.4521 54.5351 37.7356 54.5351C35.0191 54.5351 33.9635 51.3284 33.9635 46.8459C33.9635 42.3634 35.6194 40.1222 35.6194 37.8059C35.6194 35.4897 35.6194 31.8326 35.6194 31.8326H39.8567C39.8567 31.8326 39.8567 35.4897 39.8567 37.8059C39.8567 40.1222 41.5127 42.3634 41.5127 46.8459Z" fill="#F89E1B"/>
<path d="M37.7357 31.8326C37.7357 31.8326 37.7357 31.8159 37.7357 31.7826H35.9647C35.9647 31.7826 36.2749 29.8765 36.3699 29.0561C36.6001 28.5308 36.6251 25.8593 36.7001 24.4586C36.8502 21.7721 37.2304 22.0722 37.3255 21.2118C37.4155 20.3513 37.1954 19.6409 37.1954 19.6409V19.2707C37.1954 19.2707 37.6356 18.7104 37.6356 17.8899C37.6356 17.2396 37.6957 17.1495 37.7257 17.1395C37.7357 17.1395 37.7357 17.1395 37.7357 17.1395V17.1896C37.7357 17.1896 37.739 17.1896 37.7457 17.1896C37.7757 17.1996 37.8408 17.2846 37.8408 17.94C37.8408 18.7604 38.281 19.3207 38.281 19.3207V19.6909C38.281 19.6909 38.0609 20.4013 38.1509 21.2618C38.246 22.1223 38.6212 21.8221 38.7713 24.5086C38.8513 25.9094 38.8763 28.5808 39.1065 29.1061C39.2015 29.9266 39.5117 31.8326 39.5117 31.8326H37.7357Z" fill="#DDBD6E"/>
<path d="M41.5127 46.8459C41.5127 51.3284 40.4521 54.5351 37.7356 54.5351C35.0191 54.5351 33.9635 51.3284 33.9635 46.8459C33.9635 42.3634 35.6194 40.1222 35.6194 37.8059C35.6194 35.4897 35.6194 31.8326 35.6194 31.8326H39.8567C39.8567 31.8326 39.8567 35.4897 39.8567 37.8059C39.8567 40.1222 41.5127 42.3634 41.5127 46.8459Z" fill="#DDBD6E"/>
<path d="M30.6716 53.4995H32.0424V55.8258H30.6716V53.4995Z" fill="#DDBD6E"/>
<path d="M35.5593 53.4995H39.9167V55.8258H35.5593V53.4995Z" fill="#F89E1B"/>
<path d="M39.9169 53.4995H44.7996V55.8258H39.9169V53.4995Z" fill="#C49F54"/>
<path d="M32.0425 53.4995H35.5594V55.8258H32.0425V53.4995Z" fill="#EED688"/>
<path d="M35.5593 53.4995H39.9167V55.8258H35.5593V53.4995Z" fill="#F89E1B"/>
<path d="M35.5593 53.4995H39.9167V55.8258H35.5593V53.4995Z" fill="#DDBD6E"/>
<path d="M45.4399 31.5225H29.5962V32.0478H45.4399V32.8682H46.7756V31.5225H45.4399Z" fill="#C49F54"/>
</svg>
