<svg width="73" height="68" viewBox="0 0 73 68" fill="none" xmlns="http://www.w3.org/2000/svg">
<rect width="72.8372" height="67.7791" rx="19.2209" fill="#FFF2E9"/>
<path d="M56.6822 44.634H53.4827C51.2425 48.5399 49.0392 50.8749 46.8886 50.8327C46.5724 52.6407 46.1243 53.7845 45.3601 53.7845H27.0539C26.2896 53.7845 25.8363 52.6407 25.52 50.8327C23.3695 50.8749 21.1662 48.5399 18.926 44.634H15.7318C14.4404 44.634 15.6105 41.5031 17.0337 41.5031H18.9207C19.8379 40.6439 20.755 39.6846 21.6722 38.6304C21.7811 38.5074 21.8901 38.3809 21.999 38.2509C22.1958 38.0189 22.3926 37.7835 22.5893 37.5445C22.6895 37.418 22.7949 37.2915 22.8951 37.165C22.9952 37.0385 23.1006 36.9068 23.2008 36.7803C23.3308 36.6151 23.4608 36.4464 23.5908 36.2742C23.9703 35.7788 24.3551 35.2622 24.7399 34.7246C24.8295 34.5981 24.9244 34.4663 25.0193 34.3345C25.2266 34.0358 25.4357 33.7301 25.6465 33.4174C25.7519 33.2698 25.8521 33.1169 25.9522 32.9693C26.026 32.8569 26.0998 32.7462 26.1736 32.6373C26.1842 32.6162 26.2 32.5951 26.2105 32.574C26.3335 32.3842 26.4583 32.1945 26.5848 32.0047C26.6656 31.8747 26.7482 31.7447 26.8325 31.6147C26.843 31.5936 26.8589 31.5725 26.8747 31.5462C26.9854 31.3722 27.0908 31.1983 27.2015 31.0243V31.0191C27.2594 30.9294 27.3174 30.8346 27.3754 30.7397C27.4351 30.6448 27.4931 30.5517 27.5494 30.4603C27.6302 30.3268 27.711 30.1933 27.7918 30.0597C27.892 29.8911 27.9921 29.7277 28.0923 29.559C28.1098 29.5274 28.1274 29.4957 28.145 29.4641C28.1696 29.4219 28.1942 29.3815 28.2188 29.3429C28.3295 29.1531 28.4402 28.9581 28.5561 28.7683C28.5807 28.7227 28.6053 28.677 28.6299 28.6313C28.658 28.5856 28.6844 28.5399 28.709 28.4942C28.7652 28.4029 28.8197 28.3098 28.8724 28.2149C28.9251 28.1253 28.9778 28.0251 29.0305 27.9303C29.0832 27.8406 29.1359 27.7405 29.1886 27.6456C29.1886 27.6456 29.1904 27.6456 29.1939 27.6456C29.2115 27.614 29.229 27.5824 29.2466 27.5507C29.345 27.375 29.4434 27.1976 29.5418 27.0184C29.7632 26.6125 29.9846 26.2014 30.2059 25.785C30.6276 24.9996 31.044 24.1878 31.4657 23.3498C31.9682 22.3412 32.4725 21.2958 32.9785 20.2135C32.9416 19.0644 32.4935 17.9206 31.55 16.7347C31.4499 16.6081 31.4657 16.5344 31.5342 16.3973C31.7767 15.8913 32.1088 15.5592 32.483 15.1744H39.9257C40.2999 15.5592 40.632 15.8913 40.8744 16.3973C40.943 16.5344 40.9588 16.6081 40.8586 16.7347C39.9151 17.9206 39.4618 19.0644 39.4302 20.2135C39.9362 21.2958 40.4405 22.3412 40.943 23.3498C41.0238 23.5114 41.1046 23.6713 41.1854 23.8294C41.2592 23.9717 41.333 24.1193 41.4068 24.2616C41.6704 24.7782 41.9392 25.2842 42.2027 25.785C42.2308 25.8377 42.2589 25.8886 42.2871 25.9378C42.4803 26.3033 42.6754 26.6635 42.8721 27.0184C42.9705 27.2046 43.0724 27.3891 43.1779 27.5718C43.2446 27.6948 43.3131 27.8178 43.3834 27.9408C43.4203 28.0093 43.4572 28.0726 43.4941 28.1411C43.596 28.3168 43.6979 28.4925 43.7998 28.6682V28.6735C43.8051 28.684 43.8156 28.6945 43.8209 28.7104C43.9263 28.8896 44.0318 29.0688 44.1372 29.248C44.1899 29.3429 44.2479 29.4378 44.3059 29.5326C44.4693 29.812 44.6327 30.0861 44.7961 30.3549C44.8171 30.3918 44.8382 30.4234 44.8593 30.4603C44.9542 30.6132 45.0491 30.766 45.1439 30.9242C45.3442 31.2457 45.5445 31.5672 45.7448 31.8782V31.8835C45.8713 32.0768 45.9978 32.27 46.1243 32.4633C46.546 33.1064 46.9677 33.7301 47.3894 34.3345C47.6635 34.7246 47.9428 35.1041 48.2169 35.473C48.4172 35.7471 48.6175 36.016 48.8178 36.2742C48.9074 36.3955 49.0023 36.5167 49.0919 36.6327C49.1306 36.6819 49.171 36.7311 49.2132 36.7803C49.3397 36.9454 49.4662 37.1053 49.5927 37.2599C49.7192 37.4216 49.8457 37.5779 49.9722 37.729C50.0987 37.8836 50.2269 38.0365 50.357 38.1876C51.4006 39.421 52.4443 40.5227 53.4827 41.5031H55.3749C56.7981 41.5031 57.9683 44.634 56.6822 44.634Z" fill="#622B15"/>
<path d="M31.4867 16.6239C31.4972 16.6555 31.5183 16.6924 31.5499 16.7293C32.4882 17.9153 32.9415 19.0486 32.9784 20.1924H39.4301C39.467 19.0486 39.9203 17.9153 40.8585 16.7293C40.8902 16.6924 40.9112 16.6555 40.9218 16.6239H31.4867Z" fill="#542512"/>
<path d="M32.4829 15.1744C32.1086 15.5592 31.7766 15.8913 31.5341 16.392C31.4919 16.4869 31.4656 16.5554 31.4867 16.624H40.9218C40.9428 16.5554 40.9165 16.4869 40.8743 16.392C40.6318 15.8913 40.2998 15.5592 39.9203 15.1744C37.4429 15.1744 34.9638 15.1744 32.4829 15.1744Z" fill="#7F371B"/>
<path d="M55.3749 41.5031H53.4879H18.9207H17.0337C15.6105 41.5031 14.4404 44.634 15.7318 44.634H18.926H53.4827H56.6822C57.9683 44.634 56.7981 41.5031 55.3749 41.5031Z" fill="#994321"/>
<path d="M18.926 44.634H53.4827C51.2794 48.4766 49.113 50.7958 46.9941 50.8327H46.8887H25.52H25.4146C23.2957 50.7958 21.1293 48.4766 18.926 44.634Z" fill="#934120"/>
<path d="M25.5199 50.8328H46.8885C46.9237 50.8363 46.9588 50.8363 46.9939 50.8328H46.8885C46.5723 52.6407 46.119 53.7845 45.3547 53.7845H36.22H36.1884H27.0538C26.2895 53.7845 25.8309 52.6407 25.5199 50.8328Z" fill="#84391B"/>
<path d="M31.4656 23.3497C31.044 24.1878 30.6275 24.9996 30.2059 25.7849C29.9845 26.2013 29.7631 26.6125 29.5417 27.0183C29.4433 27.1976 29.3449 27.375 29.2465 27.5507C29.229 27.5823 29.2096 27.614 29.1886 27.6456C29.1358 27.7405 29.0831 27.8406 29.0304 27.9302C28.9777 28.0251 28.925 28.1253 28.8723 28.2149C28.8196 28.3097 28.7651 28.4029 28.7089 28.4942C28.6843 28.5399 28.6579 28.5856 28.6298 28.6313C28.6088 28.6787 28.5771 28.7209 28.5508 28.763C28.4401 28.9581 28.3294 29.1531 28.2134 29.3429C28.1923 29.385 28.1713 29.4219 28.1449 29.4641C28.1273 29.4957 28.1098 29.5273 28.0922 29.559C27.992 29.7276 27.8919 29.891 27.7917 30.0597C27.7109 30.1932 27.6301 30.325 27.5493 30.455C27.4931 30.5499 27.4351 30.6448 27.3753 30.7397C27.3174 30.8345 27.2594 30.9294 27.2014 31.019V31.0243C27.0907 31.1982 26.9853 31.3722 26.8746 31.5461C26.8588 31.5725 26.843 31.5936 26.8324 31.6147C26.7481 31.7447 26.6655 31.8747 26.5847 32.0047C26.4582 32.1945 26.3334 32.3842 26.2104 32.574C26.1999 32.5951 26.1841 32.6161 26.1736 32.6372C26.0998 32.7462 26.026 32.8569 25.9522 32.9693C25.852 33.1169 25.7519 33.2697 25.6465 33.4173C25.4356 33.7301 25.2265 34.0358 25.0192 34.3345C24.9243 34.4663 24.8294 34.598 24.7398 34.7245C24.3551 35.2622 23.9703 35.7787 23.5908 36.2742C23.4607 36.4464 23.3307 36.6151 23.2007 36.7802C23.1006 36.9067 22.9951 37.0385 22.895 37.165C22.7948 37.2915 22.6894 37.418 22.5893 37.5445C22.3925 37.7835 22.1957 38.0189 21.9989 38.2508C21.89 38.3809 21.7811 38.5074 21.6721 38.6304H23.7331C24.3726 37.8959 25.0122 37.1105 25.6517 36.2742C25.7466 36.1583 25.8415 36.0317 25.9311 35.9105C26.1103 35.6733 26.2895 35.4361 26.4635 35.1937C26.5759 35.039 26.6884 34.8827 26.8008 34.7245C26.8957 34.598 26.9906 34.4663 27.0802 34.3345C27.1698 34.208 27.2594 34.0815 27.3437 33.9497H27.349C27.4685 33.7775 27.5879 33.6036 27.7074 33.4279C27.7074 33.4244 27.7092 33.4208 27.7127 33.4173C27.8128 33.2697 27.913 33.1169 28.0131 32.9693C28.1185 32.8112 28.224 32.6583 28.3241 32.5002C28.3874 32.4053 28.4489 32.3087 28.5086 32.2103C28.5508 32.1523 28.5929 32.089 28.6298 32.0258C28.7071 31.9063 28.7845 31.7851 28.8618 31.6621C28.8881 31.6252 28.9145 31.5883 28.9356 31.5461C29.0304 31.4021 29.1236 31.2562 29.2149 31.1086C29.2255 31.0928 29.2307 31.077 29.2413 31.0612C29.352 30.882 29.4627 30.7028 29.5733 30.5236C29.6682 30.3707 29.7578 30.2126 29.8527 30.0597C29.9265 29.9402 29.9985 29.8208 30.0688 29.7013C30.1883 29.5045 30.306 29.3042 30.422 29.1004C30.48 29.0002 30.5379 28.9001 30.5959 28.7999C30.6557 28.7016 30.7136 28.5996 30.7699 28.4942C30.8753 28.3203 30.9754 28.1358 31.0808 27.9566C31.0844 27.9496 31.0879 27.9443 31.0914 27.9408C31.1898 27.7651 31.2864 27.5894 31.3813 27.4137C31.4551 27.2837 31.5289 27.1519 31.6027 27.0183C31.6343 26.9656 31.6642 26.9129 31.6923 26.8602C31.8574 26.558 32.0226 26.2505 32.1878 25.9378C32.2159 25.8886 32.244 25.8376 32.2721 25.7849C32.4935 25.3703 32.7131 24.9486 32.931 24.5199C33.0223 24.3442 33.1137 24.1667 33.2051 23.9875C33.3105 23.7767 33.4212 23.5658 33.5266 23.3497H31.4656Z" fill="#CC9B52"/>
<path d="M56.682 44.634H53.4825C51.2424 48.5399 49.0391 50.8749 46.8885 50.8327C46.5723 52.6407 46.1242 53.7845 45.3599 53.7845H29.1147C28.3504 53.7845 27.8971 52.6407 27.5861 50.8327C25.4356 50.8749 23.227 48.5399 20.9921 44.634H17.7926C16.5012 44.634 17.6767 41.5031 19.0998 41.5031H20.9869C21.904 40.6439 22.8159 39.6846 23.733 38.6304C24.3726 37.8959 25.0121 37.1106 25.6517 36.2742C25.7466 36.1583 25.8414 36.0318 25.931 35.9105C26.1103 35.6733 26.2895 35.4362 26.4634 35.1937C26.5759 35.0391 26.6883 34.8827 26.8008 34.7246C26.8956 34.5981 26.9905 34.4663 27.0801 34.3345C27.1697 34.208 27.2593 34.0815 27.3437 33.9497C27.3437 33.9497 27.3437 33.955 27.3489 33.9497C27.4684 33.7775 27.5879 33.6036 27.7074 33.4279C27.7074 33.4244 27.7091 33.4209 27.7126 33.4174C27.8128 33.2698 27.9129 33.1169 28.0131 32.9693C28.1185 32.8112 28.2239 32.6583 28.3241 32.5002C28.3873 32.4053 28.4506 32.3087 28.5138 32.2103C28.5525 32.1506 28.5911 32.0891 28.6298 32.0258C28.7071 31.9063 28.7844 31.7851 28.8617 31.6621C28.8881 31.6252 28.9144 31.5883 28.9355 31.5462C29.0304 31.4021 29.1235 31.2563 29.2149 31.1087C29.2254 31.0928 29.2307 31.077 29.2412 31.0612C29.3519 30.882 29.4626 30.7028 29.5733 30.5236C29.6682 30.3707 29.7631 30.2126 29.8527 30.0597C29.9265 29.9403 29.9985 29.8208 30.0688 29.7013C30.1847 29.5063 30.306 29.306 30.4219 29.1004C30.5379 28.9001 30.6591 28.6998 30.7698 28.4942C30.8752 28.3203 30.9754 28.1358 31.0808 27.9566C31.0843 27.9496 31.0878 27.9443 31.0914 27.9408C31.1897 27.7651 31.2864 27.5894 31.3813 27.4137C31.4551 27.2837 31.5288 27.1519 31.6026 27.0184C31.6343 26.9657 31.6641 26.9129 31.6922 26.8602C31.8574 26.558 32.0226 26.2506 32.1877 25.9378C32.2158 25.8886 32.2439 25.8377 32.2721 25.785C32.4934 25.3703 32.7131 24.9486 32.9309 24.5199C33.0223 24.3442 33.1137 24.1668 33.205 23.9875C33.3104 23.7767 33.4211 23.5659 33.5266 23.3498C34.0326 22.3412 34.5386 21.2958 35.0446 20.2135C35.0077 19.0644 34.5544 17.9206 33.6109 16.7347C33.5107 16.6081 33.5318 16.5344 33.6003 16.3973C33.8428 15.8913 34.1749 15.5592 34.5491 15.1744H39.9255C40.2998 15.5592 40.6319 15.8913 40.8743 16.3973C40.9428 16.5344 40.9587 16.6081 40.8585 16.7347C39.915 17.9206 39.4617 19.0644 39.4301 20.2135C39.9361 21.2958 40.4403 22.3412 40.9428 23.3498C41.0237 23.5114 41.1045 23.6713 41.1853 23.8294C41.2591 23.9717 41.3329 24.1193 41.4067 24.2616C41.6702 24.7782 41.9391 25.2842 42.2026 25.785C42.2307 25.8377 42.2588 25.8886 42.287 25.9378C42.4802 26.3033 42.6752 26.6635 42.872 27.0184C42.9704 27.2046 43.0723 27.3891 43.1777 27.5718C43.2445 27.6948 43.313 27.8178 43.3833 27.9408C43.4202 28.0093 43.4571 28.0726 43.494 28.1411C43.5959 28.3168 43.6978 28.4925 43.7997 28.6682V28.6735C43.805 28.684 43.8155 28.6945 43.8208 28.7104C43.9262 28.8896 44.0317 29.0688 44.1371 29.248C44.1898 29.3429 44.2478 29.4378 44.3057 29.5326C44.4691 29.812 44.6325 30.0861 44.7959 30.3549C44.817 30.3918 44.8381 30.4234 44.8592 30.4603C44.9541 30.6132 45.049 30.766 45.1438 30.9242C45.3441 31.2457 45.5444 31.5672 45.7447 31.8782V31.8835C45.8712 32.0768 45.9977 32.27 46.1242 32.4633C46.5459 33.1064 46.9676 33.7301 47.3893 34.3345C47.6634 34.7246 47.9427 35.1041 48.2168 35.473C48.4171 35.7471 48.6174 36.016 48.8177 36.2742C48.9073 36.3955 49.0022 36.5167 49.0918 36.6327C49.1305 36.6819 49.1709 36.7311 49.213 36.7803C49.3395 36.9454 49.466 37.1053 49.5926 37.2599C49.7191 37.4216 49.8456 37.5779 49.9721 37.729C50.0986 37.8836 50.2268 38.0365 50.3568 38.1876C51.4005 39.421 52.4442 40.5227 53.4825 41.5031H55.3748C56.798 41.5031 57.9682 44.634 56.682 44.634Z" fill="#7B3619"/>
<path d="M35.0447 20.1924H39.4302C39.4671 19.0486 39.9204 17.9153 40.8586 16.7293C40.8902 16.6924 40.9113 16.6555 40.9219 16.6239H33.5477C33.5583 16.6555 33.5794 16.6924 33.611 16.7293C34.5492 17.9153 35.0025 19.0486 35.0447 20.1924Z" fill="#692E14"/>
<path d="M33.5477 16.624H40.9218C40.9429 16.5554 40.9165 16.4869 40.8744 16.392C40.6319 15.8913 40.2998 15.5592 39.9203 15.1744H39.894H39.8043H39.778H39.6937H39.662H39.5724H39.5461H39.4565H39.4301H39.3405H39.3141H39.2245H39.1982H39.1086H39.0822H38.9926H38.9663H38.8767H38.8503H38.7607H38.7343H38.6447H38.6184H38.5288H38.4971H38.4128H38.3864H38.2968H38.2705H38.1809H38.1493H38.0649H38.0333H37.949H37.9173H37.833H37.8014H37.717H37.6854H37.6011H37.5694H37.4851H37.4535H37.3639H37.3375H37.2532H37.2216H37.132H37.1056H37.016H36.9896H36.9H36.8737H36.7841H36.7577H36.6681H36.6417H36.5521H36.5258H36.4362H36.4098H36.3202H36.2939H36.2043H36.1779H36.0883H36.0619H35.9723H35.946H35.8564H35.83H35.7404H35.7088H35.6244H35.5928H35.5085H35.4821H35.3925H35.3609H35.2766H35.2449H35.1606H35.129H35.0446H35.013H34.9234H34.897H34.8127H34.7811H34.6915H34.6651H34.5755H34.5492C34.1749 15.5592 33.8428 15.8913 33.6004 16.392C33.5529 16.4869 33.5319 16.5554 33.5477 16.624Z" fill="#954221"/>
<path d="M55.3748 41.5031H53.4878H20.9868H19.0998C17.6767 41.5031 16.5065 44.634 17.7926 44.634H18.9259H20.9868H53.4825H55.5488H56.682C57.9682 44.634 56.798 41.5031 55.3748 41.5031Z" fill="#AF4C25"/>
<path d="M20.9868 44.634H53.4825C51.2792 48.4766 49.1129 50.7958 46.9939 50.8327H46.8885H27.5861H27.4754C25.3617 50.7958 23.1901 48.4766 20.9868 44.634Z" fill="#9F4421"/>
<path d="M27.4755 50.8328H27.5862C27.8971 52.6407 28.3505 53.7845 29.1147 53.7845H36.1884H36.22H38.2494H38.2863H45.3547C46.119 53.7845 46.5723 52.6407 46.8885 50.8328H46.994C46.9588 50.8363 46.9237 50.8363 46.8885 50.8328H27.5862C27.5475 50.8363 27.5106 50.8363 27.4755 50.8328Z" fill="#AF4C25"/>
<path d="M33.5002 23.3497H40.9165C44.1792 29.87 47.4472 34.8774 50.71 38.6304H23.7067C26.9694 34.8774 30.2322 29.87 33.5002 23.3497Z" fill="#D1AB5E"/>
<path fill-rule="evenodd" clip-rule="evenodd" d="M48.8177 36.2742H23.5907C23.9702 35.7787 24.355 35.2621 24.7398 34.7245C24.8294 34.598 24.9243 34.4662 25.0191 34.3344H27.8339C27.6652 34.2132 27.5018 34.0867 27.3489 33.9497H27.3436C27.3401 33.9461 27.3349 33.9409 27.3278 33.9338C26.8745 33.5332 26.4897 33.0589 26.2104 32.5739C26.3334 32.3842 26.4581 32.1944 26.5846 32.0047C26.8165 32.4896 27.2119 32.9956 27.6915 33.412C27.6968 33.4173 27.7021 33.4226 27.7073 33.4278C28.3188 33.9549 29.0515 34.3344 29.7261 34.3344H32.4776C34.0062 34.3344 35.8458 32.3894 35.8458 31.1666C35.8458 30.9768 35.9775 30.8292 36.1357 30.8292C36.2991 30.8292 36.4256 30.9768 36.4256 31.1666C36.4256 32.3894 38.2652 34.3344 39.7937 34.3344H42.5505C43.7892 34.3344 45.2387 33.0483 45.7342 31.9098C45.7394 31.8992 45.7447 31.8887 45.7447 31.8834C45.8712 32.0767 45.9977 32.27 46.1242 32.4632C46.1207 32.4703 46.1154 32.4773 46.1084 32.4843C45.7394 33.1748 45.1385 33.8495 44.4428 34.3344H47.3893C47.6633 34.7245 47.9427 35.104 48.2168 35.473C48.4171 35.7471 48.6174 36.0159 48.8177 36.2742ZM37.9015 34.3344C37.1424 33.8073 36.4941 33.0483 36.1357 32.2946C35.7825 33.0483 35.1289 33.8073 34.3752 34.3344H37.9015Z" fill="#7B3619"/>
<path fill-rule="evenodd" clip-rule="evenodd" d="M45.1439 30.9241C45.1404 30.9312 45.1351 30.9382 45.1281 30.9452C44.1529 32.205 42.7403 32.9956 41.1696 32.9956C38.845 32.9956 36.8579 31.2509 36.1358 28.821C35.4189 31.2457 33.437 32.9956 31.1072 32.9956H31.102C30.1637 32.9956 29.2782 32.711 28.5139 32.2103H28.5086C28.5034 32.2103 28.4981 32.205 28.4928 32.1997H28.4875C28.0079 31.8835 27.5757 31.4881 27.2014 31.0243V31.019C27.2594 30.9294 27.3174 30.8345 27.3754 30.7396C27.4351 30.6448 27.4931 30.5499 27.5493 30.455C27.5493 30.4585 27.5493 30.4603 27.5493 30.4603C27.9183 30.9399 28.3558 31.3458 28.8407 31.6515C28.8512 31.6568 28.8565 31.6621 28.8618 31.6621C29.4469 32.031 30.1005 32.2577 30.8015 32.3104C30.7488 31.3564 30.4905 30.4656 30.0688 29.7013C30.0636 29.6907 30.0583 29.6855 30.053 29.6749C29.742 29.1109 29.3414 28.6154 28.8723 28.2148C28.925 28.1252 28.9777 28.0251 29.0304 27.9302C29.0832 27.8406 29.1359 27.7405 29.1886 27.6456C29.1886 27.6456 29.1903 27.6456 29.1939 27.6456C29.663 28.0462 30.0741 28.5258 30.4062 29.0793C30.4167 29.0846 30.422 29.0951 30.422 29.1004C30.7066 29.5695 30.9386 30.086 31.102 30.6395C31.5869 29.0266 32.62 27.7141 33.9483 27.0183H29.5417C29.7631 26.6125 29.9845 26.2013 30.2059 25.7849H42.2027C42.2308 25.8376 42.2589 25.8886 42.287 25.9378C42.4803 26.3032 42.6753 26.6634 42.8721 27.0183H38.3285C39.6568 27.7141 40.6899 29.0266 41.1696 30.6395C41.5438 29.3955 42.2448 28.3308 43.1567 27.5876C43.1637 27.5841 43.1708 27.5788 43.1778 27.5718C43.2446 27.6948 43.3131 27.8178 43.3834 27.9407C43.4203 28.0093 43.4572 28.0725 43.4941 28.141C43.4888 28.1463 43.4835 28.1516 43.4783 28.1569C42.3397 29.0898 41.5649 30.5921 41.4753 32.3104C42.7983 32.2103 43.9737 31.4829 44.7802 30.376C44.7872 30.3689 44.7925 30.3619 44.796 30.3549C44.8171 30.3918 44.8382 30.4234 44.8593 30.4603C44.9541 30.6131 45.049 30.766 45.1439 30.9241ZM28.2187 29.3428C28.2187 29.3428 28.217 29.3428 28.2134 29.3428C28.3294 29.1531 28.4401 28.9581 28.5508 28.763C28.5508 28.763 28.5561 28.763 28.5561 28.7683C29.0146 29.327 29.4047 29.9279 29.5628 30.4866V30.4919C29.5698 30.5025 29.5734 30.513 29.5734 30.5235C29.4627 30.7028 29.352 30.882 29.2413 31.0612C29.2307 31.077 29.2255 31.0928 29.2149 31.1086C29.2676 31.1402 29.3256 31.1508 29.3889 31.135C29.547 31.0981 29.6524 30.9241 29.6208 30.7396C29.6103 30.6711 29.5944 30.5973 29.5734 30.5235C29.4627 30.7028 29.352 30.882 29.2413 31.0612C29.2307 31.077 29.2255 31.0928 29.2149 31.1086C29.2044 31.1033 29.1991 31.0981 29.1886 31.0981C29.1148 31.0506 29.0621 30.9663 29.0463 30.8609C28.9777 30.4181 28.6509 29.8805 28.2187 29.3428ZM35.809 27.498C34.8391 28.3361 33.3158 29.8436 33.1576 30.8609C33.126 31.0454 32.9732 31.1666 32.815 31.135C32.6569 31.0981 32.5515 30.9241 32.5831 30.7396C32.7676 29.5695 34.1328 28.1463 35.0816 27.2871C33.068 27.8195 31.5394 29.8489 31.4024 32.3104C33.6795 32.1417 35.5243 30.0966 35.809 27.498ZM40.8691 32.3104C40.7373 29.8489 39.2087 27.8195 37.1952 27.2871C38.144 28.1463 39.5092 29.5695 39.6937 30.7396C39.72 30.9241 39.6146 31.0981 39.4565 31.135C39.2984 31.1666 39.1455 31.0454 39.1191 30.8609C38.9557 29.8436 37.4377 28.3361 36.4678 27.498C36.7472 30.0966 38.592 32.1417 40.8691 32.3104Z" fill="#7B3619"/>
</svg>
