<svg width="74" height="68" viewBox="0 0 74 68" fill="none" xmlns="http://www.w3.org/2000/svg">
<rect x="0.976807" width="72.8372" height="67.7791" rx="19.2209" fill="#FFF2E9"/>
<path d="M48.0797 30.5355C48.068 30.7236 48.0562 30.9196 48.0444 31.1233C48.0327 31.3114 48.0209 31.5113 48.0033 31.7111C48.0033 31.7288 48.0033 31.7523 47.9974 31.7758C47.9269 32.7222 47.8152 33.8155 47.6565 34.9735C47.5801 35.526 47.4978 36.0962 47.392 36.6722C47.392 36.6722 47.392 36.6742 47.392 36.6781C47.0393 38.7001 46.5162 40.8162 45.752 42.6972C45.752 42.7031 45.752 42.7031 45.752 42.7031C45.7089 42.8128 45.6619 42.9225 45.6109 43.0322C45.511 43.2732 45.3993 43.5142 45.2876 43.7494C45.27 43.7905 45.2465 43.8375 45.223 43.8787C45.2171 43.8963 45.2054 43.9139 45.1995 43.9316C45.1642 43.9962 45.1348 44.055 45.1054 44.1197C45.0584 44.2059 45.0114 44.2921 44.9644 44.3783C44.9467 44.4136 44.9232 44.4547 44.9056 44.4841C44.7939 44.6957 44.6763 44.8897 44.5529 45.0896C44.2296 45.6068 43.871 46.0947 43.4831 46.5179C43.054 46.9882 42.5837 47.3937 42.0724 47.7229H33.079C32.5676 47.3937 32.0973 46.9882 31.6682 46.5179C31.2803 46.0947 30.9276 45.6068 30.5984 45.0896C30.475 44.8897 30.3574 44.6957 30.2458 44.49C30.2281 44.4547 30.2046 44.4136 30.187 44.3783C30.1399 44.2921 30.0929 44.2059 30.0459 44.1197C30.0165 44.0609 29.9871 43.9962 29.9519 43.9316C29.944 43.9159 29.9362 43.8983 29.9283 43.8787C29.9048 43.8375 29.8813 43.7905 29.8637 43.7494C29.75 43.5142 29.6423 43.2752 29.5404 43.0322C29.4894 42.9225 29.4424 42.8128 29.3993 42.7031C28.6352 40.8162 28.112 38.7001 27.7593 36.6781C27.6535 36.0962 27.5713 35.526 27.4948 34.9735C27.3303 33.8155 27.2244 32.7222 27.1539 31.7758C27.15 31.7523 27.148 31.7307 27.148 31.7111C27.1304 31.5113 27.1186 31.3114 27.1069 31.1233C27.0912 30.9196 27.0795 30.7236 27.0716 30.5355C26.9952 29.1836 27.0011 28.3372 27.0011 28.3372H48.1502C48.1502 28.3372 48.1561 29.1836 48.0797 30.5355Z" fill="#EBE0D4"/>
<path d="M27.6064 47.7229H47.5447V49.9624H27.6064V47.7229Z" fill="#D9C9B9"/>
<path d="M60.8702 30.5355C60.8467 30.7236 60.8193 30.9196 60.7879 31.1233C60.7644 31.3114 60.7291 31.5113 60.6998 31.7111C60.6958 31.7307 60.6919 31.7523 60.688 31.7758C60.5234 32.7222 60.2883 33.8155 59.9356 34.9735C59.7651 35.526 59.5712 36.0962 59.3478 36.6722C59.3478 36.6722 59.3478 36.6722 59.3478 36.6781C58.5601 38.7001 57.4081 40.8162 55.7093 42.6972C55.7093 42.7031 55.7093 42.7031 55.7093 42.7031C55.6074 42.8128 55.5055 42.9225 55.4036 43.0322C55.1685 43.2732 54.9275 43.5142 54.6806 43.7494C54.6336 43.7905 54.5866 43.8375 54.5396 43.8787C54.5219 43.8963 54.4984 43.9139 54.4808 43.9316C54.4103 43.9962 54.3397 44.055 54.2692 44.1197C54.1693 44.2078 54.0693 44.296 53.9635 44.3783C53.9224 44.4136 53.8754 44.4547 53.8342 44.4841C53.5815 44.6957 53.3228 44.8897 53.0524 45.0896C52.3236 45.6068 51.5359 46.0947 50.6718 46.5179C49.7196 46.9882 48.6792 47.3937 47.5447 47.7229H42.0723C42.5837 47.3937 43.0539 46.9882 43.483 46.5179C43.8709 46.0947 44.2295 45.6068 44.5528 45.0896C44.6762 44.8897 44.7938 44.6957 44.9055 44.4841C44.9231 44.4547 44.9466 44.4136 44.9643 44.3783C45.0113 44.2921 45.0583 44.2059 45.1053 44.1197C45.1347 44.055 45.1641 43.9962 45.1994 43.9316C45.2053 43.9139 45.217 43.8963 45.2229 43.8787C45.2464 43.8375 45.2699 43.7905 45.2876 43.7494C45.3934 43.5378 45.4874 43.3203 45.5873 43.1028C45.5932 43.0793 45.605 43.0558 45.6108 43.0322C45.6618 42.9225 45.7088 42.8128 45.7519 42.7031C45.7519 42.7031 45.7519 42.7031 45.7519 42.6972C45.94 42.2387 46.1105 41.7685 46.2692 41.2865C46.4632 40.6928 46.6395 40.0873 46.7982 39.4702C46.9569 38.853 47.0921 38.2299 47.2155 37.6127C47.2782 37.2992 47.337 36.9877 47.3919 36.6781C47.3919 36.6742 47.3919 36.6722 47.3919 36.6722C47.4742 36.2137 47.5447 35.7611 47.6094 35.3144C47.625 35.2007 47.6407 35.0871 47.6564 34.9735C47.6956 34.6952 47.7309 34.4229 47.7622 34.1564C47.868 33.3041 47.9444 32.4988 47.9973 31.7758C48.0032 31.7523 48.0032 31.7288 48.0032 31.7111C48.0208 31.5113 48.0326 31.3114 48.0443 31.1233C48.0561 30.9196 48.0679 30.7236 48.0796 30.5355C48.156 29.1836 48.1502 28.3372 48.1502 28.3372H61.023C61.023 28.3372 61.0348 29.1836 60.8702 30.5355Z" fill="#D9C9B9"/>
<path d="M33.0788 47.7229H28.8643C27.8709 47.3937 26.9657 46.9882 26.131 46.5179C25.3786 46.0947 24.685 45.6068 24.0502 45.0896C23.815 44.8897 23.5917 44.6957 23.3683 44.49C23.333 44.4547 23.2919 44.4136 23.2566 44.3783C23.1626 44.2921 23.0725 44.2059 22.9862 44.1197C22.9235 44.057 22.8628 43.9943 22.804 43.9316C22.7864 43.9139 22.7688 43.8963 22.7511 43.8787C22.71 43.8375 22.6688 43.7905 22.6277 43.7494C22.6159 43.7435 22.61 43.7259 22.5983 43.72C22.5336 43.6494 22.469 43.5789 22.4102 43.5084C22.2691 43.3497 22.1339 43.1968 21.9987 43.0322C21.9086 42.9225 21.8185 42.8128 21.7283 42.7031C21.7166 42.6854 21.7048 42.6737 21.6931 42.656C21.4697 42.37 21.2561 42.078 21.0524 41.7802C20.7937 41.4099 20.5586 41.0278 20.3352 40.6458C19.577 39.3408 18.9951 37.9889 18.5483 36.6781C18.3544 36.0962 18.1839 35.526 18.0369 34.9735C17.9194 34.5267 17.8136 34.0918 17.7254 33.6685C17.5902 33.0631 17.4844 32.4812 17.4021 31.9463C17.3943 31.8875 17.3864 31.8307 17.3786 31.7758C17.3747 31.7523 17.3708 31.7307 17.3668 31.7111C17.3375 31.5113 17.3081 31.3114 17.2845 31.1233C17.261 30.9196 17.2395 30.7236 17.2199 30.5355C17.0729 29.1836 17.0847 28.3372 17.0847 28.3372H27.0009C27.0009 28.3372 26.9951 29.1836 27.0715 30.5355C27.0793 30.7236 27.0911 30.9196 27.1067 31.1233C27.1185 31.3114 27.1303 31.5113 27.1479 31.7111C27.1479 31.7307 27.1498 31.7523 27.1538 31.7758C27.2067 32.4988 27.2831 33.3041 27.383 34.1564C27.4183 34.4209 27.4535 34.6972 27.4947 34.9735C27.5104 35.0871 27.526 35.2027 27.5417 35.3203C27.6044 35.7631 27.6769 36.2157 27.7592 36.6781C27.8121 36.9837 27.8709 37.3012 27.9355 37.6127C28.059 38.2299 28.2001 38.8588 28.3529 39.476C28.5116 40.0873 28.6879 40.6928 28.8819 41.2865C29.0406 41.7685 29.2111 42.2446 29.3992 42.7031C29.4423 42.8128 29.4893 42.9225 29.5402 43.0322C29.5461 43.0558 29.5579 43.0793 29.5696 43.1028C29.6637 43.3222 29.7617 43.5378 29.8635 43.7494C29.8812 43.7905 29.9047 43.8375 29.9282 43.8787C29.936 43.8983 29.9439 43.9159 29.9517 43.9316C29.987 43.9962 30.0164 44.0609 30.0458 44.1197C30.0928 44.2059 30.1398 44.2921 30.1868 44.3783C30.2045 44.4136 30.228 44.4547 30.2456 44.49C30.3573 44.6957 30.4749 44.8897 30.5983 45.0896C30.9275 45.6068 31.2801 46.0947 31.6681 46.5179C32.0972 46.9882 32.5674 47.3937 33.0788 47.7229Z" fill="#F2EBE3"/>
<path d="M48.0797 30.5355C48.068 30.7236 48.0562 30.9196 48.0444 31.1233C48.0327 31.3114 48.0209 31.5113 48.0033 31.7111C48.0033 31.7288 48.0033 31.7523 47.9974 31.7758C47.9269 32.7222 47.8152 33.8155 47.6565 34.9735C47.5801 35.526 47.4978 36.0962 47.392 36.6722C47.392 36.6722 47.392 36.6742 47.392 36.6781C47.0393 38.7001 46.5162 40.8162 45.752 42.6972C45.752 42.7031 45.752 42.7031 45.752 42.7031C45.7089 42.8128 45.6619 42.9225 45.6109 43.0322C45.511 43.2732 45.3993 43.5142 45.2876 43.7494C45.27 43.7905 45.2465 43.8375 45.223 43.8787C45.2171 43.8963 45.2054 43.9139 45.1995 43.9316C45.1642 43.9962 45.1348 44.055 45.1054 44.1197C45.0584 44.2059 45.0114 44.2921 44.9644 44.3783C44.9467 44.4136 44.9232 44.4547 44.9056 44.4841C44.7939 44.6957 44.6763 44.8897 44.5529 45.0896C44.2296 45.6068 43.871 46.0947 43.4831 46.5179C43.054 46.9882 42.5837 47.3937 42.0724 47.7229H33.079C32.5676 47.3937 32.0973 46.9882 31.6682 46.5179C31.2803 46.0947 30.9276 45.6068 30.5984 45.0896C30.475 44.8897 30.3574 44.6957 30.2458 44.49C30.2281 44.4547 30.2046 44.4136 30.187 44.3783C30.1399 44.2921 30.0929 44.2059 30.0459 44.1197C30.0165 44.0609 29.9871 43.9962 29.9519 43.9316C29.944 43.9159 29.9362 43.8983 29.9283 43.8787C29.9048 43.8375 29.8813 43.7905 29.8637 43.7494C29.75 43.5142 29.6423 43.2752 29.5404 43.0322C29.4894 42.9225 29.4424 42.8128 29.3993 42.7031C28.6352 40.8162 28.112 38.7001 27.7593 36.6781C27.6535 36.0962 27.5713 35.526 27.4948 34.9735C27.3303 33.8155 27.2244 32.7222 27.1539 31.7758C27.15 31.7523 27.148 31.7307 27.148 31.7111C27.1304 31.5113 27.1186 31.3114 27.1069 31.1233C27.0912 30.9196 27.0795 30.7236 27.0716 30.5355C26.9952 29.1836 27.0011 28.3372 27.0011 28.3372H48.1502C48.1502 28.3372 48.1561 29.1836 48.0797 30.5355Z" fill="#EBE0D4"/>
<path d="M26.1311 46.5179C26.9657 46.9882 27.871 47.3937 28.8643 47.7229H27.6064C26.472 47.3937 25.4375 46.9882 24.4852 46.5179C23.6211 46.0947 22.8276 45.6068 22.0987 45.0896C21.8342 44.8897 21.5697 44.6957 21.3228 44.49C21.2758 44.4547 21.2347 44.4136 21.1876 44.3783C21.0818 44.296 20.9819 44.2078 20.882 44.1197C20.8114 44.057 20.7429 43.9943 20.6762 43.9316C20.6527 43.9139 20.6351 43.8963 20.6175 43.8787C20.5646 43.8375 20.5234 43.7905 20.4764 43.7494C20.2256 43.5142 19.9846 43.2752 19.7534 43.0322C19.6476 42.9225 19.5437 42.8128 19.4419 42.7031C17.749 40.8162 16.591 38.7001 15.8092 36.6781C15.58 36.0962 15.386 35.526 15.2155 34.9735C14.8629 33.8155 14.6277 32.7222 14.4632 31.7758C14.4592 31.7523 14.4553 31.7307 14.4514 31.7111C14.422 31.5113 14.3867 31.3114 14.3632 31.1233C14.3319 30.9196 14.3045 30.7236 14.2809 30.5355C14.1164 29.1836 14.1281 28.3372 14.1281 28.3372H17.0848C17.0848 28.3372 17.073 29.1836 17.22 30.5355C17.2396 30.7236 17.2611 30.9196 17.2846 31.1233C17.3081 31.3114 17.3375 31.5113 17.3669 31.7111C17.3708 31.7307 17.3747 31.7523 17.3787 31.7758C17.5197 32.7222 17.7255 33.8155 18.037 34.9735C18.184 35.526 18.3544 36.0962 18.5484 36.6781C19.2361 38.7001 20.2471 40.8162 21.7284 42.7031C21.8185 42.8128 21.9087 42.9225 21.9988 43.0322C22.2026 43.2752 22.4122 43.5142 22.6277 43.7494C22.6689 43.7905 22.71 43.8375 22.7512 43.8787C22.7688 43.8963 22.7865 43.9139 22.8041 43.9316C22.8629 43.9943 22.9236 44.057 22.9863 44.1197C23.0725 44.2059 23.1627 44.2921 23.2567 44.3783C23.292 44.4136 23.3331 44.4547 23.3684 44.49C23.5917 44.6957 23.8151 44.8897 24.0502 45.0896C24.6851 45.6068 25.3787 46.0947 26.1311 46.5179Z" fill="#EBE0D4"/>
<path d="M48.0797 30.5355C48.068 30.7236 48.0562 30.9196 48.0444 31.1233C48.0327 31.3114 48.0209 31.5113 48.0033 31.7111C48.0033 31.7288 48.0033 31.7523 47.9974 31.7758C47.9269 32.7222 47.8152 33.8155 47.6565 34.9735C47.5801 35.526 47.4978 36.0962 47.392 36.6722C47.392 36.6722 47.392 36.6742 47.392 36.6781C47.0393 38.7001 46.5162 40.8162 45.752 42.6972C45.752 42.7031 45.752 42.7031 45.752 42.7031C45.7089 42.8128 45.6619 42.9225 45.6109 43.0322C45.511 43.2732 45.3993 43.5142 45.2876 43.7494C45.27 43.7905 45.2465 43.8375 45.223 43.8787C45.2171 43.8963 45.2054 43.9139 45.1995 43.9316C45.1642 43.9962 45.1348 44.055 45.1054 44.1197C45.0584 44.2059 45.0114 44.2921 44.9644 44.3783C44.9467 44.4136 44.9232 44.4547 44.9056 44.4841C44.7939 44.6957 44.6763 44.8897 44.5529 45.0896C44.2296 45.6068 43.871 46.0947 43.4831 46.5179C43.054 46.9882 42.5837 47.3937 42.0724 47.7229H33.079C32.5676 47.3937 32.0973 46.9882 31.6682 46.5179C31.2803 46.0947 30.9276 45.6068 30.5984 45.0896C30.475 44.8897 30.3574 44.6957 30.2458 44.49C30.2281 44.4547 30.2046 44.4136 30.187 44.3783C30.1399 44.2921 30.0929 44.2059 30.0459 44.1197C30.0165 44.0609 29.9871 43.9962 29.9519 43.9316C29.944 43.9159 29.9362 43.8983 29.9283 43.8787C29.9048 43.8375 29.8813 43.7905 29.8637 43.7494C29.75 43.5142 29.6423 43.2752 29.5404 43.0322C29.4894 42.9225 29.4424 42.8128 29.3993 42.7031C28.6352 40.8162 28.112 38.7001 27.7593 36.6781C27.6535 36.0962 27.5713 35.526 27.4948 34.9735C27.3303 33.8155 27.2244 32.7222 27.1539 31.7758C27.15 31.7523 27.148 31.7307 27.148 31.7111C27.1304 31.5113 27.1186 31.3114 27.1069 31.1233C27.0912 30.9196 27.0795 30.7236 27.0716 30.5355C26.9952 29.1836 27.0011 28.3372 27.0011 28.3372H48.1502C48.1502 28.3372 48.1561 29.1836 48.0797 30.5355Z" fill="#EBE0D4"/>
<path d="M46.2693 41.2865C46.1106 41.7685 45.9401 42.2387 45.752 42.6972C45.752 42.7031 45.752 42.7031 45.752 42.7031C45.7089 42.8128 45.6619 42.9226 45.6109 43.0323C45.6051 43.0558 45.5933 43.0793 45.5874 43.1028C45.4405 42.9088 45.3523 42.6561 45.3523 42.3857C45.3523 41.7861 45.7579 41.3041 46.2693 41.2865Z" fill="#005F97"/>
<path d="M47.2391 42.3857C47.2391 42.9853 46.8159 43.479 46.2928 43.479C46.0106 43.479 45.7579 43.3321 45.5874 43.1028C45.5933 43.0793 45.605 43.0558 45.6109 43.0323C45.6619 42.9226 45.7089 42.8128 45.752 42.7031C45.752 42.7031 45.752 42.7031 45.752 42.6972C45.9401 42.2387 46.1105 41.7685 46.2693 41.2865C46.2751 41.2865 46.2869 41.2865 46.2928 41.2865C46.8159 41.2865 47.2391 41.7744 47.2391 42.3857Z" fill="#08517E"/>
<path d="M37.5755 33.1219C37.3521 33.1219 37.1699 32.9103 37.1699 32.6516C37.1699 32.393 37.3521 32.1814 37.5755 32.1814C37.7989 32.1814 37.9811 32.393 37.9811 32.6516C37.9811 32.9103 37.7989 33.1219 37.5755 33.1219Z" fill="#005F97"/>
<path fill-rule="evenodd" clip-rule="evenodd" d="M60.8703 30.5355C60.8468 30.7236 60.8194 30.9196 60.788 31.1233C60.7645 31.3114 60.7292 31.5113 60.6998 31.7111C60.6959 31.7307 60.692 31.7523 60.6881 31.7758C58.2017 32.2578 55.5154 35.2497 55.5154 37.1954C55.5154 37.5186 55.2921 37.7832 55.0099 37.7832C54.7336 37.7832 54.5103 37.5186 54.5103 37.1954C54.5103 35.0793 51.3244 31.7111 48.6793 31.7111H48.0033C48.0209 31.5113 48.0327 31.3114 48.0444 31.1233C48.0562 30.9196 48.068 30.7236 48.0797 30.5355C48.1561 29.1836 48.1502 28.3372 48.1502 28.3372H61.0231C61.0231 28.3372 61.0349 29.1836 60.8703 30.5355ZM58.0665 31.7111H51.9592C53.27 32.6164 54.3986 33.9389 55.0099 35.238C55.633 33.9389 56.7557 32.6164 58.0665 31.7111Z" fill="#08517E"/>
<path d="M27.1067 31.1233C27.0911 30.9196 27.0793 30.7236 27.0715 30.5355C26.9951 29.1836 27.0009 28.3372 27.0009 28.3372H17.0847C17.0847 28.3372 17.0729 29.1836 17.2199 30.5355C17.2395 30.7236 17.261 30.9196 17.2845 31.1233C17.3081 31.3114 17.3375 31.5113 17.3668 31.7111H23.1979C21.8812 32.6164 20.7585 33.9389 20.1413 35.238C19.5711 34.0447 18.5777 32.8339 17.4021 31.9463C17.4844 32.4812 17.5902 33.0631 17.7254 33.6685C18.8422 34.7736 19.6358 36.1432 19.6358 37.1954C19.6358 37.5186 19.8591 37.7832 20.1413 37.7832C20.4175 37.7832 20.6468 37.5186 20.6468 37.1954C20.6468 35.0793 23.8268 31.7111 26.4719 31.7111H27.1479C27.1303 31.5113 27.1185 31.3114 27.1067 31.1233Z" fill="#006FA9"/>
<path d="M17.7255 33.6685C16.7791 32.7398 15.6035 31.9933 14.4632 31.7758C14.4592 31.7523 14.4553 31.7307 14.4514 31.7111C14.422 31.5113 14.3867 31.3114 14.3632 31.1233C14.3319 30.9196 14.3045 30.7236 14.2809 30.5355C14.1164 29.1836 14.1281 28.3372 14.1281 28.3372H17.0848C17.0848 28.3372 17.073 29.1836 17.22 30.5355C17.2396 30.7236 17.2611 30.9196 17.2846 31.1233C17.3081 31.3114 17.3375 31.5113 17.3669 31.7111H17.0848C17.1906 31.7856 17.2964 31.864 17.4022 31.9463C17.4845 32.4812 17.5903 33.0631 17.7255 33.6685Z" fill="#005F97"/>
<path fill-rule="evenodd" clip-rule="evenodd" d="M48.0797 30.5355C48.068 30.7236 48.0562 30.9196 48.0444 31.1233C48.0327 31.3114 48.0209 31.5113 48.0033 31.7111H43.9122C41.2671 31.7111 38.0812 35.0793 38.0812 37.1954C38.0812 37.5186 37.8578 37.7832 37.5757 37.7832C37.2994 37.7832 37.0702 37.5186 37.0702 37.1954C37.0702 35.0793 33.8901 31.7111 31.245 31.7111H27.148C27.1304 31.5113 27.1186 31.3114 27.1069 31.1233C27.0912 30.9196 27.0795 30.7236 27.0716 30.5355C26.9952 29.1836 27.0011 28.3372 27.0011 28.3372H48.1502C48.1502 28.3372 48.1561 29.1836 48.0797 30.5355ZM40.6322 31.7111H34.5191C35.8358 32.6164 36.9585 33.9389 37.5757 35.238C38.1929 33.9389 39.3214 32.6164 40.6322 31.7111Z" fill="#005F97"/>
<path d="M55.0099 41.2512C53.9165 37.5715 51.148 34.7912 47.7622 34.1564C47.7309 34.4228 47.6956 34.6952 47.6564 34.9734C47.6408 35.0871 47.6251 35.2007 47.6094 35.3143C51.1833 35.9903 53.9871 39.3467 54.4456 43.5495C52.7644 42.0976 50.1311 39.4877 49.8548 37.7185C49.8019 37.401 49.5433 37.1894 49.267 37.2482C48.9908 37.307 48.8085 37.6127 48.8614 37.9301C49.1788 39.9639 51.5418 42.4268 53.1877 43.9139C50.378 43.1733 48.1149 40.7515 47.2156 37.6127C47.0921 38.2298 46.957 38.8529 46.7982 39.4701C47.7505 41.6332 49.314 43.3731 51.2185 44.3783H44.9643C44.9467 44.4135 44.9232 44.4547 44.9055 44.4841C44.7938 44.6957 44.6763 44.8897 44.5528 45.0895C44.2295 45.6068 43.871 46.0947 43.483 46.5179H50.6719C51.5359 46.0947 52.3236 45.6068 53.0525 45.0895C53.3229 44.8897 53.5815 44.6957 53.8343 44.4841C53.8754 44.4547 53.9224 44.4135 53.9636 44.3783C54.0694 44.296 54.1693 44.2078 54.2692 44.1196C54.3398 44.055 54.4103 43.9962 54.4808 43.9315C54.4985 43.9139 54.522 43.8963 54.5396 43.8786C54.5866 43.8375 54.6337 43.7905 54.6807 43.7493C54.9276 43.5142 55.1686 43.2732 55.4037 43.0322C55.5056 42.9225 55.6075 42.8128 55.7093 42.703C55.7093 42.703 55.7093 42.703 55.7093 42.6972C56.1855 40.1755 57.5257 38.0182 59.3478 36.678C59.3478 36.6722 59.3478 36.6722 59.3478 36.6722C59.5712 36.0961 59.7652 35.526 59.9356 34.9734C57.6432 36.1843 55.8445 38.4591 55.0099 41.2512Z" fill="#08517E"/>
<path d="M30.5984 45.0895C30.4749 44.8897 30.3574 44.6957 30.2457 44.49C30.2281 44.4547 30.2045 44.4135 30.1869 44.3783H23.9386C25.843 43.379 27.4066 41.6391 28.353 39.476C28.2001 38.8588 28.0591 38.2298 27.9356 37.6127C27.1068 40.5164 25.1142 42.803 22.5984 43.7199C22.6101 43.7258 22.616 43.7434 22.6278 43.7493C22.6689 43.7905 22.7101 43.8375 22.7512 43.8786C22.7688 43.8963 22.7865 43.9139 22.8041 43.9315C22.8629 43.9942 22.9236 44.0569 22.9863 44.1196C23.0725 44.2058 23.1627 44.2921 23.2567 44.3783C23.292 44.4135 23.3331 44.4547 23.3684 44.49C23.5918 44.6957 23.8151 44.8897 24.0502 45.0895C24.6851 45.6068 25.3787 46.0947 26.1311 46.5179H31.6682C31.2802 46.0947 30.9275 45.6068 30.5984 45.0895ZM27.5418 35.3202C27.5261 35.2027 27.5104 35.0871 27.4948 34.9734C27.4536 34.6972 27.4184 34.4209 27.3831 34.1564C24.1913 34.7559 21.5403 37.2659 20.3353 40.6457C20.5587 41.0278 20.7938 41.4099 21.0524 41.7802C21.9929 38.4297 24.4911 35.8963 27.5418 35.3202ZM26.2957 37.9301C26.3427 37.6127 26.1605 37.307 25.8901 37.2482C25.6138 37.1894 25.3493 37.401 25.3023 37.7185C25.073 39.1645 23.2626 41.1806 21.6932 42.656C21.7049 42.6736 21.7167 42.6854 21.7284 42.703C21.8186 42.8128 21.9087 42.9225 21.9988 43.0322C22.134 43.1968 22.2692 43.3496 22.4103 43.5083C24.0032 42.0035 26.0076 39.7875 26.2957 37.9301Z" fill="#006FA9"/>
<path d="M26.1311 46.5178H24.4852C23.6212 46.0946 22.8276 45.6068 22.0988 45.0895C21.8342 44.8896 21.5697 44.6957 21.3229 44.4899C21.2758 44.4547 21.2347 44.4135 21.1877 44.3782C21.0819 44.296 20.9819 44.2078 20.882 44.1196C20.8115 44.0569 20.7429 43.9942 20.6763 43.9315C20.6528 43.9139 20.6351 43.8962 20.6175 43.8786C20.5646 43.8375 20.5234 43.7904 20.4764 43.7493C20.2256 43.5142 19.9846 43.2751 19.7534 43.0322C19.6476 42.9224 19.5438 42.8127 19.4419 42.703C18.9658 40.1754 17.6314 38.0182 15.8093 36.678C15.58 36.0961 15.386 35.5259 15.2156 34.9734C17.5139 36.1784 19.3126 38.4532 20.1414 41.2453C20.2001 41.0415 20.2648 40.8416 20.3353 40.6457C20.5587 41.0278 20.7938 41.4098 21.0525 41.7802C20.8879 42.3444 20.7762 42.9381 20.7115 43.5436C21.0113 43.2849 21.3522 42.9851 21.6932 42.656C21.7049 42.6736 21.7167 42.6854 21.7284 42.703C21.8186 42.8127 21.9087 42.9224 21.9988 43.0322C22.134 43.1968 22.2692 43.3496 22.4103 43.5083C22.2575 43.6533 22.1086 43.7904 21.9636 43.9198C22.181 43.861 22.3927 43.7963 22.5984 43.7199C22.6101 43.7258 22.616 43.7434 22.6278 43.7493C22.6689 43.7904 22.7101 43.8375 22.7512 43.8786C22.7688 43.8962 22.7865 43.9139 22.8041 43.9315C22.8629 43.9942 22.9236 44.0569 22.9863 44.1196C23.0725 44.2058 23.1627 44.292 23.2567 44.3782C23.292 44.4135 23.3331 44.4547 23.3684 44.4899C23.5918 44.6957 23.8151 44.8896 24.0503 45.0895C24.6851 45.6068 25.3787 46.0946 26.1311 46.5178Z" fill="#005F97"/>
<path fill-rule="evenodd" clip-rule="evenodd" d="M47.7622 34.1564C47.7308 34.4229 47.6956 34.6953 47.6564 34.9735C47.6407 35.0871 47.625 35.2008 47.6094 35.3144C47.3468 35.2674 47.0823 35.2341 46.8158 35.2145C46.8629 36.0433 46.9981 36.8486 47.2155 37.6127C47.0921 38.2299 46.9569 38.853 46.7982 39.4702C46.6042 39.0293 46.4338 38.5767 46.2927 38.1006C45.4639 40.8985 43.6652 43.1675 41.3728 44.3783H44.9643C44.9466 44.4136 44.9231 44.4548 44.9055 44.4841C44.7938 44.6957 44.6762 44.8897 44.5528 45.0896C44.2295 45.6068 43.8709 46.0947 43.483 46.5179H31.6681C31.2802 46.0947 30.9275 45.6068 30.5983 45.0896C30.4749 44.8897 30.3573 44.6957 30.2457 44.49C30.228 44.4547 30.2045 44.4136 30.1869 44.3783H33.7842C31.4859 43.1675 29.6931 40.9044 28.8584 38.1065C28.7174 38.5826 28.5528 39.0411 28.3529 39.4761C28.2001 38.8589 28.059 38.2299 27.9356 37.6127C28.1531 36.8486 28.2883 36.0492 28.3353 35.2145C28.0649 35.2341 27.8004 35.2693 27.5418 35.3203C27.5261 35.2027 27.5104 35.0871 27.4947 34.9735C27.4536 34.6972 27.4183 34.4209 27.3831 34.1564C27.8651 34.0683 28.3588 34.0212 28.8584 34.0212H28.8643C32.8966 34.0271 36.3294 37.0543 37.5756 41.2512C38.8276 37.0484 42.2604 34.0212 46.2927 34.0212C46.7923 34.0212 47.2861 34.0683 47.7622 34.1564ZM31.8268 37.2483C32.1031 37.1895 32.3676 37.4011 32.4147 37.7185C32.6909 39.4878 35.3302 42.0977 37.0054 43.5495C36.5175 39.0411 33.3199 35.5025 29.3816 35.2145C29.6108 39.4819 32.2618 42.9911 35.7475 43.914C34.1075 42.4268 31.7387 39.9639 31.4213 37.9301C31.3742 37.6127 31.5565 37.3071 31.8268 37.2483ZM45.7754 35.2145C41.8313 35.5025 38.6336 39.0411 38.1457 43.5495C39.8269 42.0977 42.4602 39.4878 42.7365 37.7185C42.7894 37.4011 43.048 37.1895 43.3243 37.2483C43.6005 37.3071 43.7828 37.6127 43.7299 37.9301C43.4125 39.9639 41.0495 42.4268 39.4036 43.914C42.8893 42.9911 45.5403 39.4819 45.7754 35.2145Z" fill="#005F97"/>
<path d="M55.0158 33.1219C54.7924 33.1219 54.6102 32.9103 54.6102 32.6516C54.6102 32.393 54.7924 32.1814 55.0158 32.1814C55.2392 32.1814 55.4155 32.393 55.4155 32.6516C55.4155 32.9103 55.2392 33.1219 55.0158 33.1219Z" fill="#08517E"/>
<path d="M20.1414 33.1219C19.9181 33.1219 19.7358 32.9103 19.7358 32.6516C19.7358 32.393 19.9181 32.1814 20.1414 32.1814C20.3648 32.1814 20.5411 32.393 20.5411 32.6516C20.5411 32.9103 20.3648 33.1219 20.1414 33.1219Z" fill="#006FA9"/>
<path d="M29.7989 42.3857C29.7989 42.6561 29.7166 42.9088 29.5697 43.1028C29.5579 43.0793 29.5462 43.0558 29.5403 43.0323C29.4894 42.9226 29.4423 42.8128 29.3992 42.7031C29.2111 42.2446 29.0407 41.7685 28.882 41.2865C29.3933 41.3041 29.7989 41.7861 29.7989 42.3857Z" fill="#005F97"/>
<path d="M29.5696 43.1028C29.3991 43.3321 29.1405 43.479 28.8583 43.479C28.3352 43.479 27.9178 42.9853 27.9178 42.3857C27.9178 41.7744 28.3352 41.2865 28.8583 41.2865C28.8662 41.2865 28.874 41.2865 28.8818 41.2865C29.0406 41.7685 29.211 42.2446 29.3991 42.7031C29.4422 42.8128 29.4892 42.9226 29.5402 43.0323C29.5461 43.0558 29.5578 43.0793 29.5696 43.1028Z" fill="#006FA9"/>
</svg>
